<?xml version="1.0" encoding="UTF-8"?>
<svg xmlns="http://www.w3.org/2000/svg" version="1.1" viewBox="0 0 200 200">
  <defs>
    <style>
      .cls-1 {
        fill:rgb(31, 166, 234);
      }

      .cls-2 {
        fill: #e6e6e6;
      }
	 /* 定义旋转动画 */
      @keyframes rotate {
        from {
          transform: rotate(0deg);
        }
        to {
          transform: rotate(360deg);
        }
      }

      /* 应用旋转动画 */
      #sq {
        animation: rotate 5s linear infinite;
        transform-origin: center;
      }
    </style>
  </defs>
  <!-- Generator: Adobe Illustrator 28.7.1, SVG Export Plug-In . SVG Version: 1.2.0 Build 142)  -->
  <g>
    <g id="_图层_2" data-name="图层_2">
      <circle class="cls-2" cx="100" cy="100" r="87"/>
    </g>
    <g id="_图层_3" data-name="图层_3">
      <path class="cls-1" d="M142.2,75.9v21.1c-1.2,2.1-3.5,3.9-6.6,5.4-.5,17.5-16,31.5-35.2,31.5s-34.5-13.9-35.1-31.3c-3-1.6-5.4-3.4-6.6-5.6-.3-4.7,0-18,0-21.1,13.1-14.2,69.8-14.4,83.4,0ZM101.6,94.6c-6.5,0-12,4.4-13.2,10.2h-.3v16.6h.8c1.9,3,6.8,5.1,12.7,5.1s10.8-2.1,12.7-5.1h.8v-16.6h-.3c-1.3-5.8-6.7-10.2-13.2-10.2h0ZM101.6,106.9c3.4,0,6.1,3.3,6.1,7.4s-2.8,7.4-6.1,7.4-6.1-3.3-6.1-7.4,2.8-7.4,6.1-7.4h0ZM66,79c0,1.5-.1,8.4.1,10.8,12.5-7.6,58.2-7.5,71.1,0v-10.6c-12.1-8.5-55.3-9.1-71.2-.2h0Z"/>
    </g>
    <g id="sq" data-name="图层_4">
      <path class="cls-1" d="M167.4,130.3l-2.3-11.1c-.4-2-2.4-3.3-4.4-2.9-2,.4-3.3,2.4-2.9,4.4,0,0,0,0,0,0l1.6,7.5-7.6,1.5c-2,.5-3.2,2.5-2.7,4.5.4,1.6,1.8,2.7,3.5,2.8h.7l11.2-2.3c2-.4,3.3-2.3,2.9-4.2,0,0,0-.1,0-.2h0Z"/>
      <path class="cls-1" d="M99,25.9c1.5-1.4,3.8-1.4,5.2,0l7.8,7.9c1.4,1.4,1.5,3.7,0,5.1-.7.7-1.7,1.1-2.7,1.1-1,0-2-.4-2.7-1.1l-5.3-5.2-5.6,5.3h.3c-1.5,1.4-3.8,1.4-5.2,0-1.4-1.4-1.4-3.8,0-5.2,0,0,0,0,0,0l7.9-7.9Z"/>
      <path class="cls-1" d="M52.8,138.1c-.4,1.7-1.9,2.9-3.6,2.9h-.7l-11.2-2.4c-2-.4-3.3-2.2-2.9-4.2,0,0,0-.1,0-.2l2.3-11.1c.4-2,2.4-3.3,4.4-2.9,2,.4,3.3,2.4,2.9,4.4,0,0,0,0,0,0l-1.6,7.5,7.6,1.5c2,.4,3.3,2.2,2.9,4.2,0,0,0,.1,0,.2Z"/>
    </g>
  </g>
</svg>