<?xml version="1.0" encoding="UTF-8"?>
<svg xmlns="http://www.w3.org/2000/svg" version="1.1" viewBox="0 0 200 200">
  <defs>
    <style>
      .cls-1 {
        fill: #fff;
      }

      .cls-2 {
        fill: #ff931e;
      }
    </style>
  </defs>
  <!-- Generator: Adobe Illustrator 28.7.1, SVG Export Plug-In . SVG Version: 1.2.0 Build 142)  -->
  <g>
    <g id="_图层_2" data-name="图层_2">
      <circle class="cls-2" cx="100" cy="100" r="87"/>
    </g>
    <g id="_图层_3" data-name="图层_3">
      <path class="cls-1" d="M100.4,122.5c-8.4,0-15.2-6.8-15.2-15.2h0s-21.3,0-21.3,0c-1,0-1.9-.4-2.4-1.2-.6-.8-.7-1.8-.5-2.7l.2-.5,17.9-35.9v-14.5c0-1.3.8-2.4,2-2.9h.5c0-.1.5-.2.5-.2h15.2v-6.1c0-1.7,1.3-3.1,3-3.1,1.5,0,2.8,1.1,3,2.5v.5s0,6.1,0,6.1h15.2c1.5,0,2.7,1,3,2.5v.5s0,14.5,0,14.5l17.9,35.9c.4.8.4,1.7,0,2.5-.3.8-1,1.4-1.8,1.7h-.5c0,.1-.5.2-.5.2h-21.3c0,8.4-6.8,15.2-15.2,15.2h0ZM91.3,107.3c0,5,4.1,9.1,9.1,9.1s9.1-4.1,9.1-9.1h0s-18.3,0-18.3,0ZM85.2,55.6v13.1c-.1,0-.3.4-.3.4l-16.1,32.1h63.2l-16.1-32.1-.2-.4v-.5c-.1,0-.1-.5-.1-.5v-12.2h-30.4Z"/>
      <rect class="cls-1" x="128" y="120" width="8" height="20" transform="translate(-53.3 131.4) rotate(-45)"/>
      <rect class="cls-1" x="96" y="129" width="8" height="20"/>
      <rect class="cls-1" x="58" y="126" width="20" height="8" transform="translate(-72 86.1) rotate(-45)"/>
    </g>
  </g>
</svg>