<?xml version="1.0" encoding="UTF-8"?>
<svg xmlns="http://www.w3.org/2000/svg" version="1.1" viewBox="0 0 200 200">
  <defs>
    <style>
      .cls-1 {
        fill: #fff;
      }

      .cls-2 {
        fill: #999;
      }
    </style>
  </defs>
  <!-- Generator: Adobe Illustrator 28.7.1, SVG Export Plug-In . SVG Version: 1.2.0 Build 142)  -->
  <g>
    <g id="_图层_2" data-name="图层_2">
      <circle class="cls-1" cx="100" cy="100" r="87"/>
    </g>
    <g id="_图层_3" data-name="图层_3">
      <path class="cls-2" d="M100.4,162.9c-12.8,0-23.1-10.3-23.1-23.1h0s-32.4,0-32.4,0c-1.5,0-2.8-.7-3.7-1.8-.9-1.2-1.1-2.7-.7-4.1l.3-.7,27.2-54.5v-22c0-1.9,1.2-3.7,3-4.3l.8-.2h.8c0,0,23.1,0,23.1,0v-9.2c0-2.6,2-4.7,4.6-4.7,2.3,0,4.2,1.6,4.6,3.9v.8c0,0,0,9.2,0,9.2h23.1c2.2,0,4.1,1.6,4.5,3.8v.8c0,0,0,22,0,22l27.2,54.5c.6,1.2.7,2.6.1,3.8-.5,1.2-1.5,2.2-2.8,2.6l-.7.2h-.8c0,0-32.4,0-32.4,0,0,12.8-10.3,23.1-23.1,23.1h0ZM86.6,139.8c0,7.7,6.2,13.9,13.9,13.9,7.7,0,13.9-6.2,13.9-13.9h0s-27.7,0-27.7,0ZM77.3,61.2v19.2l-.2.7-.3.7-24.4,48.8h96l-24.4-48.8-.3-.7-.2-.7v-.7c0,0,0-18.5,0-18.5h-46.2Z"/>
    </g>
  </g>
</svg>