<?xml version="1.0" encoding="UTF-8"?>
<svg xmlns="http://www.w3.org/2000/svg" version="1.1" viewBox="0 0 200 200">
  <defs>
    <style>
      .cls-1 {
        fill: #fff;
      }

      .cls-2 {
        fill: #999;
      }
    </style>
  </defs>
  <!-- Generator: Adobe Illustrator 28.7.1, SVG Export Plug-In . SVG Version: 1.2.0 Build 142)  -->
  <g>
    <g id="_图层_2" data-name="图层_2">
      <circle class="cls-1" cx="100" cy="100" r="87"/>
    </g>
    <g id="_图层_3" data-name="图层_3">
      <path class="cls-2" d="M112.1,64h-23.1c-1.2,0-2.2-1-2.2-2.2v-6.2c0-1.2,1-2.2,2.2-2.2h23.1c1.2,0,2.2,1,2.2,2.2v6.2c0,1.2-1,2.2-2.2,2.2ZM91.1,59.7h18.8v-1.8h-18.8v1.8Z"/>
      <path class="cls-2" d="M108.2,70.8h-15.4c-1.2,0-2.2-1-2.2-2.2v-4.6c0-1.2.9-2.2,2.1-2.2,1.2,0,2.2.9,2.2,2.1,0,0,0,0,0,.1v2.4h11.1v-2.4c0-1.2.9-2.2,2.1-2.2,1.2,0,2.2.9,2.2,2.1,0,0,0,0,0,.1v4.6c0,1.2-1,2.2-2.2,2.2,0,0,0,0,0,0Z"/>
      <path class="cls-2" d="M100.5,90.8c-1.2,0-2.2-1-2.2-2.2v-19.6c0-1.2.9-2.2,2.1-2.2,1.2,0,2.2.9,2.2,2.1,0,0,0,0,0,.1v19.6c0,1.2-1,2.2-2.2,2.2,0,0,0,0,0,0ZM100.5,144.5c-1.2,0-2.2-1-2.2-2.2v-24.7c0-1.2.9-2.2,2.1-2.2,1.2,0,2.2.9,2.2,2.1,0,0,0,0,0,.1v24.7c0,1.2-1,2.2-2.2,2.2h0ZM66.8,134.1h-26.2c-1.2,0-2.2-1-2.2-2.2,0-.1,0-.3,0-.4l4.6-24.7c.2-1,1.1-1.8,2.1-1.8h17c1,0,1.9.7,2.1,1.8l4.6,24.7c.2,1.2-.6,2.3-1.7,2.5-.1,0-.3,0-.4,0h0ZM43.2,129.7h21l-3.8-20.3h-13.3l-3.8,20.3Z"/>
      <path class="cls-2" d="M74.4,147.3h-4.4c-8.1,0-15.6-5.1-18.6-12.7-.4-1.1.1-2.4,1.2-2.8,1.1-.4,2.4.1,2.8,1.2,2.4,5.9,8.2,9.9,14.6,9.9h4.4c8.6,0,15.6-7,15.7-15.7v-9.9c0-1.2.9-2.2,2.1-2.2,1.2,0,2.2.9,2.2,2.1,0,0,0,0,0,.1v9.9c0,11-9,20-20,20Z"/>
      <path class="cls-2" d="M113.6,116.6h-26.2c-1.2,0-2.2-1-2.2-2.2,0-.1,0-.3,0-.4l4.6-24.7c.2-1,1.1-1.8,2.1-1.8h17c1.1,0,2,.7,2.1,1.8l4.6,24.7c.2,1.2-.6,2.3-1.7,2.5-.1,0-.3,0-.4,0h0ZM90,112.3h21l-3.8-20.3h-13.4l-3.8,20.3ZM159.8,134.1h-26.2c-1.2,0-2.2-1-2.2-2.2,0-.1,0-.3,0-.4l4.6-24.7c.2-1,1.1-1.8,2.1-1.8h17c1,0,1.9.7,2.1,1.8l4.6,24.7c.2,1.2-.6,2.3-1.7,2.5-.1,0-.3,0-.4,0h0ZM136.2,129.7h21l-3.8-20.3h-13.3l-3.8,20.3Z"/>
      <path class="cls-2" d="M130.4,147.3h-4.4c-11,0-20-9-20-20v-9.9c0-1.2.9-2.2,2.1-2.2,1.2,0,2.2.9,2.2,2.1,0,0,0,0,0,.1v9.9c0,8.6,7,15.6,15.7,15.7h4.4c6.3,0,12.2-4,14.6-9.9.5-1.1,1.8-1.6,2.9-1.2,1.1.5,1.6,1.7,1.2,2.8-3,7.6-10.5,12.7-18.6,12.7h0Z"/>
    </g>
  </g>
</svg>