<svg t="1732118502104" class="icon" viewBox="0 0 1024 1024" version="1.1" xmlns="http://www.w3.org/2000/svg" p-id="9836" width="200" height="200">
  <g><path d="M474.584557 37.925926v477.032296a18.962963 18.962963 0 1 0 37.925926 0V37.925926a18.962963 18.962963 0 1 0-37.925926 0z m422.608593 222.094222l-413.127111 238.554074a18.962963 18.962963 0 0 0 18.962962 32.805926l413.127112-238.516148a18.962963 18.962963 0 1 0-18.962963-32.843852z m18.962963 477.032296L503.029001 498.536296a18.962963 18.962963 0 0 0-18.962962 32.843852l413.127111 238.554074a18.962963 18.962963 0 0 0 18.962963-32.881778zM512.510483 991.990519V514.958222a18.962963 18.962963 0 1 0-37.925926 0v477.032297a18.962963 18.962963 0 1 0 37.925926 0zM89.90189 769.896296l413.127111-238.516148a18.962963 18.962963 0 0 0-18.962962-32.843852L70.938927 737.09037a18.962963 18.962963 0 0 0 18.962963 32.805926z m-18.962963-477.032296l413.127112 238.554074a18.962963 18.962963 0 0 0 18.962962-32.881778L89.90189 260.020148a18.962963 18.962963 0 1 0-18.962963 32.843852zM317.191964 133.688889l163.536593 149.921185a18.962963 18.962963 0 1 0 25.637926-27.951407L342.791964 105.737481a18.962963 18.962963 0 1 0-25.6 27.951408z m352.711112 0l-163.536593 149.921185a18.962963 18.962963 0 1 1-25.637926-27.951407l163.574519-149.921186a18.962963 18.962963 0 1 1 25.6 27.951408z m-163.536593 640.568889L342.791964 924.254815a18.962963 18.962963 0 0 1-25.6-27.989334l163.536593-149.921185a18.962963 18.962963 0 0 1 25.637926 27.951408z m-25.637926 0l163.574519 149.959111a18.962963 18.962963 0 0 0 25.6-27.989333l-163.536593-149.921186a18.962963 18.962963 0 0 0-25.637926 27.951408z m199.945482-121.325037l66.673777 211.626666a18.962963 18.962963 0 1 0 36.181334-11.377777l-66.673778-211.626667a18.962963 18.962963 0 1 0-36.181333 11.377778z m25.562074-17.445926l216.632888-48.090074a18.962963 18.962963 0 0 0-8.229925-37.015704l-216.594963 48.052148a18.962963 18.962963 0 0 0 8.192 37.015704zM88.650335 574.501926l211.626666 66.711704a18.962963 18.962963 0 0 0 11.377778-36.181334l-211.626666-66.673777a18.962963 18.962963 0 0 0-11.377778 36.143407z m-8.192-109.75763l216.632889-48.052148a18.962963 18.962963 0 0 0-8.229926-37.015704L72.266335 427.766519a18.962963 18.962963 0 1 0 8.192 37.015703z m129.099852-290.019555l48.052148 216.632889a18.962963 18.962963 0 0 0 37.015704-8.229926L246.57389 166.570667a18.962963 18.962963 0 1 0-37.015703 8.192z m525.539555-1.706667l-66.673778 211.626667a18.962963 18.962963 0 0 0 36.181334 11.377778l66.673778-211.626667a18.962963 18.962963 0 0 0-36.181334-11.377778z m-47.786666 225.621333l216.557037 48.052149a18.962963 18.962963 0 1 1-8.192 37.015703l-216.594963-48.052148a18.962963 18.962963 0 1 1 8.192-37.015704zM323.639372 630.708148l-66.673778 211.626667a18.962963 18.962963 0 0 1-36.181333-11.377778l66.673778-211.626667a18.962963 18.962963 0 0 1 36.181333 11.377778z" fill="#4E4E4E" p-id="9837"></path>
  <animateTransform 
      attributeName="transform" 
      attributeType="XML" 
      type="rotate" 
      from="0 512 512" 
      to="360 512 512" 
      dur="12s" 
      repeatCount="indefinite" /></g>
</svg>
