<?xml version="1.0" standalone="no"?><!DOCTYPE svg PUBLIC "-//W3C//DTD SVG 1.1//EN" "http://www.w3.org/Graphics/SVG/1.1/DTD/svg11.dtd"><svg t="1774345533752" class="icon" viewBox="0 0 1024 1024" version="1.1" xmlns="http://www.w3.org/2000/svg" p-id="1714" xmlns:xlink="http://www.w3.org/1999/xlink" width="200" height="200"><path d="M224 159.84c0-17.6 14.24-31.84 31.776-31.84h512.448a32 32 0 0 1 31.776 31.84v736.32c0 17.6-14.24 31.84-31.776 31.84H255.776A32 32 0 0 1 224 896.16V159.84zM256 160v736h-0.224H768V160H256z" fill="#ff931e" p-id="1715"></path><path d="M352 672h32v64h-32zM448 672h32v64h-32zM544 672h32v64h-32zM640 672h32v64h-32z" fill="#ff931e" p-id="1716"></path><path d="M256 608h512v32H256v-32z m496 16l-16 16v-32l16 16zM624 864a48 48 0 1 0 0-96 48 48 0 0 0 0 96z m0-32a16 16 0 1 1 0-32 16 16 0 0 1 0 32zM400 864a48 48 0 1 0 0-96 48 48 0 0 0 0 96z m0-32a16 16 0 1 1 0-32 16 16 0 0 1 0 32z" fill="#ff931e" p-id="1717"></path></svg>