<?xml version="1.0" encoding="UTF-8"?>
<svg xmlns="http://www.w3.org/2000/svg" version="1.1" viewBox="0 0 200 200">
  <defs>
    <style>
      .cls-1 {
        fill: #fff;
      }

      .cls-2 {
        fill: #999;
      }
    </style>
  </defs>
  <!-- Generator: Adobe Illustrator 28.7.1, SVG Export Plug-In . SVG Version: 1.2.0 Build 142)  -->
  <g>
    <g id="_图层_2" data-name="图层_2">
      <circle class="cls-1" cx="100" cy="100" r="87"/>
    </g>
    <g id="_图层_3" data-name="图层_3">
      <path class="cls-2" d="M161.6,88.1c-4.5-11.1-26.1-18.1-61.2-18.1s-58.1,6.9-61.2,18.1c-.9,3.2-2.3,21.4-2.3,24.7,0,10,28.4,18.8,63.5,18.8s63.5-8.8,63.5-18.8-1-21.7-2.3-24.7ZM100.4,130.3c-33.8,0-61.2-7.8-61.2-17.5s27.4-17.5,61.2-17.5,61.2,7.8,61.2,17.5-27.4,17.5-61.2,17.5h0Z"/>
      <path class="cls-2" d="M90.1,125.3c-19-1.1-34.8-4.6-41.1-9.2-.4-.3-1-.2-1.3.2-.3.4-.2.9.2,1.2,0,0,0,0,0,0,6.6,4.8,22.7,8.5,42.1,9.6h0c.5,0,.9-.4.9-.9,0-.5-.4-.9-.9-1Z"/>
    </g>
  </g>
</svg>