<?xml version="1.0" encoding="UTF-8"?>
<svg xmlns="http://www.w3.org/2000/svg" version="1.1" viewBox="0 0 200 200">
  <defs>
    <style>
      .cls-1 {
        fill: #fff;
      }

      .cls-2 {
        fill: #999;
      }
    </style>
  </defs>
  <!-- Generator: Adobe Illustrator 28.7.1, SVG Export Plug-In . SVG Version: 1.2.0 Build 142)  -->
  <g>
    <g id="_图层_2" data-name="图层_2">
      <circle class="cls-1" cx="100" cy="100" r="87"/>
    </g>
    <g id="_图层_3" data-name="图层_3">
      <path class="cls-2" d="M143.1,57H57.5c-5.4,0-9.8,4.4-9.8,9.8v66.5c0,5.4,4.4,9.8,9.8,9.8h85.6c5.4,0,9.8-4.4,9.8-9.8v-66.5c0-5.4-4.4-9.7-9.8-9.7ZM148.4,133.2c0,2.9-2.4,5.3-5.3,5.3H57.5c-2.9,0-5.3-2.4-5.3-5.3v-66.5c0-2.9,2.4-5.3,5.3-5.3h85.6c2.9,0,5.3,2.4,5.3,5.3v66.5h0Z"/>
      <path class="cls-2" d="M139,66.9H61.6c-2.2,0-4,1.8-4,4v58c0,2.2,1.8,4,4,4h77.4c2.2,0,4-1.8,4-4v-58c0-2.2-1.8-4-4-4ZM140.8,129c0,1-.8,1.8-1.8,1.8H61.6c-1,0-1.8-.8-1.8-1.8v-58c0-1,.8-1.8,1.8-1.8h77.4c1,0,1.8.8,1.8,1.8v58Z"/>
    </g>
  </g>
</svg>