<?xml version="1.0" encoding="UTF-8"?>
<svg xmlns="http://www.w3.org/2000/svg" version="1.1" viewBox="0 0 200 200">
  <defs>
    <style>
      .cls-1 {
        fill: #fff;
      }

      .cls-2 {
        fill: #ff931e;
      }
    </style>
  </defs>
  <!-- Generator: Adobe Illustrator 28.7.1, SVG Export Plug-In . SVG Version: 1.2.0 Build 142)  -->
  <g>
    <g id="_图层_2" data-name="图层_2">
      <circle class="cls-2" cx="100" cy="100" r="87"/>
    </g>
    <g id="_图层_3" data-name="图层_3">
      <path class="cls-1" d="M130.2,70h-59.7c-3.7,0-6.8,3.1-6.8,6.8v46.4c0,3.7,3.1,6.8,6.8,6.8h59.7c3.7,0,6.8-3.1,6.8-6.8v-46.4c0-3.7-3.1-6.8-6.8-6.8ZM133.9,123.2c0,2-1.7,3.7-3.7,3.7h-59.7c-2,0-3.7-1.7-3.7-3.7v-46.4c0-2,1.7-3.7,3.7-3.7h59.7c2,0,3.7,1.7,3.7,3.7v46.4h0Z"/>
      <path class="cls-1" d="M127.3,76.9h-54c-1.6,0-2.8,1.2-2.8,2.8v40.5c0,1.6,1.2,2.8,2.8,2.8h54c1.6,0,2.8-1.2,2.8-2.8v-40.5c0-1.6-1.2-2.8-2.8-2.8ZM128.5,120.2c0,.7-.6,1.2-1.2,1.2h-54c-.7,0-1.2-.6-1.2-1.2v-40.5c0-.7.6-1.2,1.2-1.2h54c.7,0,1.2.6,1.2,1.2v40.5Z"/>
      <path class="cls-1" d="M142.1,131.6c0-.7.4-1.3,1-1.6.9-.4,2,0,2.4.8,0,0,0,0,0,0l13.5,27.5c.4.9,0,2-.8,2.4,0,0,0,0,0,0-.9.4-2,0-2.4-.8,0,0,0,0,0,0l-13.5-27.5c-.1-.2-.2-.5-.2-.8ZM41.1,159.1c0-.3,0-.5.2-.8l13.5-27.5c.4-.9,1.5-1.3,2.4-.8,0,0,0,0,0,0,.9.4,1.3,1.5.8,2.4,0,0,0,0,0,0l-13.5,27.5c-.4.9-1.5,1.3-2.4.8-.6-.3-1-.9-1-1.6h0ZM68.1,163.6c0-.1,0-.3,0-.4l6.8-27.5c.2-1,1.2-1.6,2.2-1.3,1,.2,1.6,1.2,1.3,2.2h0s-6.8,27.5-6.8,27.5c-.2,1-1.2,1.6-2.2,1.3-.8-.2-1.4-.9-1.4-1.8ZM88.7,167.2c0,0,0-.1,0-.2l2.7-27.5c0-1,1-1.7,2-1.6,1,0,1.7,1,1.6,2l-2.7,27.5c0,1-1,1.7-2,1.6-.9,0-1.6-.9-1.6-1.8h0ZM121.8,136.1c0-.8.6-1.6,1.4-1.8,1-.2,1.9.4,2.2,1.3l6.8,27.5c.2,1-.4,1.9-1.3,2.2-1,.2-1.9-.4-2.2-1.3l-6.8-27.5c0-.1,0-.3,0-.4h0ZM105.3,139.7c0-.9.7-1.7,1.6-1.8,1,0,1.9.6,2,1.6l2.7,27.5c0,1-.6,1.9-1.6,2-1,0-1.9-.6-2-1.6h0s-2.7-27.5-2.7-27.5c0,0,0-.1,0-.2ZM142.1,68.4c0-.3,0-.5.2-.8l13.5-27.5c.4-.9,1.5-1.3,2.4-.8,0,0,0,0,0,0,.9.4,1.3,1.5.8,2.4h0s-13.5,27.5-13.5,27.5c-.4.9-1.5,1.3-2.4.8-.6-.3-1-.9-1-1.6h0ZM41.1,40.9c0-.7.4-1.3,1-1.6.9-.4,2,0,2.4.8,0,0,0,0,0,0l13.5,27.5c.4.9,0,2-.8,2.4,0,0,0,0,0,0-.9.4-2,0-2.4-.8,0,0,0,0,0,0l-13.5-27.5c-.1-.2-.2-.5-.2-.8ZM68.1,36.4c0-.8.6-1.6,1.4-1.8,1-.2,1.9.4,2.2,1.3l6.8,27.5c.2,1-.4,1.9-1.3,2.2-1,.2-1.9-.4-2.2-1.3l-6.8-27.5c0-.1,0-.3,0-.4ZM88.7,32.8c0-.9.7-1.7,1.6-1.8,1,0,1.9.6,2,1.6l2.7,27.5c0,1-.6,1.9-1.6,2-1,0-1.9-.6-2-1.6,0,0,0,0,0,0l-2.7-27.5c0,0,0-.1,0-.2ZM121.8,63.9c0-.1,0-.3,0-.4l6.8-27.5c.2-1,1.2-1.6,2.2-1.3,1,.2,1.6,1.2,1.3,2.2h0s-6.8,27.5-6.8,27.5c-.2,1-1.2,1.6-2.2,1.3-.8-.2-1.4-.9-1.4-1.8h0ZM105.3,60.3c0,0,0-.1,0-.2l2.7-27.5c0-1,1-1.7,2-1.6,1,0,1.7,1,1.6,2l-2.7,27.5c0,1-1,1.7-2,1.6-.9,0-1.6-.9-1.6-1.8h0Z"/>
    </g>
  </g>
</svg>