<?xml version="1.0" encoding="UTF-8"?>
<svg xmlns="http://www.w3.org/2000/svg" version="1.1" viewBox="0 0 200 200">
  <defs>
    <style>
      .cls-1 {
        fill: #fff;
      }

      .cls-2 {
        fill: #ff931e;
      }
    </style>
  </defs>
  <!-- Generator: Adobe Illustrator 28.7.1, SVG Export Plug-In . SVG Version: 1.2.0 Build 142)  -->
  <g>
    <g id="_图层_2" data-name="图层_2">
      <circle class="cls-2" cx="100" cy="100" r="87"/>
    </g>
    <g id="_图层_3" data-name="图层_3">
      <path class="cls-1" d="M144.4,78c-3.3-7.9-18.8-13-44-13s-41.7,5-44,13c-.6,2.3-1.6,15.4-1.6,17.8,0,7.2,20.4,13.5,45.6,13.5s45.6-6.4,45.6-13.5-.7-15.6-1.6-17.8ZM100.4,108.4c-24.3,0-44-5.6-44-12.6s19.7-12.6,44-12.6,44,5.6,44,12.6-19.7,12.6-44,12.6h0Z"/>
      <path class="cls-1" d="M93,104.7c-13.7-.8-25-3.3-29.6-6.6-.3-.2-.7-.1-.9.1-.2.3-.2.7.1.9,0,0,0,0,0,0,4.7,3.5,16.3,6.1,30.3,6.9h0c.3,0,.6-.3.6-.6,0-.4-.3-.7-.6-.7Z"/>
      <rect class="cls-1" x="142" y="116" width="8" height="20" transform="translate(-46.3 140.1) rotate(-45)"/>
      <rect class="cls-1" x="96" y="126" width="8" height="20"/>
      <rect class="cls-1" x="45" y="123" width="20" height="8" transform="translate(-73.7 76.1) rotate(-45)"/>
    </g>
  </g>
</svg>