<?xml version="1.0" encoding="UTF-8"?>
<svg xmlns="http://www.w3.org/2000/svg" version="1.1" viewBox="0 0 200 200">
  <defs>
    <style>
      .cls-1 {
        fill: #fff;
      }

      .cls-2 {
        fill: #ff931e;
      }
    </style>
  </defs>
  <!-- Generator: Adobe Illustrator 28.7.1, SVG Export Plug-In . SVG Version: 1.2.0 Build 142)  -->
  <g>
    <g id="_图层_1" data-name="图层_1">
      <circle class="cls-2" cx="100" cy="100" r="87"/>
      <path class="cls-1" d="M99.8,101.4c-25.8,0-46.7,6.9-46.7,15.4s20.9,15.4,46.7,15.4,46.7-6.9,46.7-15.4-20.9-15.4-46.7-15.4ZM99.8,125.4c-14.3,0-25.9-3.8-25.9-8.6s11.6-8.6,25.9-8.6,25.9,3.8,25.9,8.6-11.6,8.6-25.9,8.6Z"/>
      <path class="cls-1" d="M45.7,117.2c.9-.1,2.4-.2,2.4-.2l10.1-9v-.5s8.1-4.9,8.1-4.9c-.2,1-.3,1.7-.3,1.7,16.8-5.3,33.9-4.5,33.9-4.5,0,0,17.1-.7,33.9,4.5,0,0,0-.7-.3-1.6l8,4.9v.5s10.1,9,10.1,9c0,0,1.5,0,2.4.2,0,0,6.1-3.9,1-9.8,0,0-2.2-1-4.9-.7l-7.8-6.3s-.9-.3-.9,1.1h0c0,0,0,0,0,0l-10.5-5.8c-.5-.7-1.1-1.1-1.8-1.3l-5.1-1.9-.8-15.9c0-.2,0-.4,0-.5,0-3.1-4.8-5.8-12-7.3,0,0,0,.2,0,.3,0,1.9-1.5,3.5-3.9,4.7v-4.5c0-.7-.6-1.2-1.3-1.2-.7,0-1.2.6-1.2,1.2v5.5c-1.3.4-2.7.6-4.1.7,0,0,0,0,0-.1v-6.9c0-.8-.6-1.5-1.2-1.5s-1.2.7-1.2,1.5v6.9c0,0,0,.1,0,.2-1.5,0-3-.3-4.3-.6v-5.8c0-.7-.6-1.2-1.3-1.2-.7,0-1.2.6-1.2,1.2v4.9c-2.6-1.2-4.3-2.9-4.3-4.9-6.4,1.5-10.7,4.1-10.7,7s0,.4,0,.5l-.8,15.9-5.1,1.9c-.7.1-1.2.6-1.7,1.3l-10.6,5.8h0s0,0,0,0c0-1.4-.9-1.1-.9-1.1l-7.8,6.3c-2.7-.3-4.9.7-4.9.7-5.1,5.8,1,9.8,1,9.8h0ZM141.2,103.1v2.7c0,0-8.4-5-8.4-5-.3-1-.6-2.1-1-3.1l9.4,5.3ZM58.2,103.1l9.4-5.3c-.4,1-.8,2.1-1,3.1l-8.4,5v-2.7Z"/>
      <rect class="cls-1" x="128" y="135" width="8" height="20" transform="translate(-63.9 135.8) rotate(-45)"/>
      <rect class="cls-1" x="96" y="144" width="8" height="20"/>
      <rect class="cls-1" x="64" y="135" width="8" height="20" transform="translate(122.4 -5.6) rotate(45)"/>
    </g>
  </g>
</svg>