<?xml version="1.0" standalone="no"?><!DOCTYPE svg PUBLIC "-//W3C//DTD SVG 1.1//EN" "http://www.w3.org/Graphics/SVG/1.1/DTD/svg11.dtd"><svg t="1733246162804" class="icon" viewBox="0 0 1024 1024" version="1.1" xmlns="http://www.w3.org/2000/svg" p-id="44614" xmlns:xlink="http://www.w3.org/1999/xlink" width="200" height="200">
  <defs>
    <style>
	

      /* 定义旋转动画 */
      @keyframes rotate {
        from {
          transform: rotate(0deg);
        }
        to {
          transform: rotate(360deg);
        }
      }

      /* 应用旋转动画 */
      #sq {
        animation: rotate 5s linear infinite;
        transform-origin: center;
      }
    </style>
  </defs>

<path id="sq"  class="o1" d="M669.02233985 486.21860696c52.92013733 6.04186729 76.73999221 35.34078598 119.18204203 35.34078597 84.30474176 0 112.00628951-94.94008347 84.11438093-179.16205973C848.85479835 271.51712503 775.93856332 204.4358435 713.85630693 215.49328889 610.33346084 233.90856933 535.12462702 323.58477888 516.49415596 449.56185249a4.34517861 4.34517861 0 0 1-4.33690177 3.69960962h-0.24001969a58.35781768 58.35781768 0 0 0-9.53456314 0.82765296 4.33690177 4.33690177 0 0 1-4.82521729-3.07059288c-8.27653037-27.80914307-15.8909388-56.09832481-11.33884711-96.00775613 6.04186729-52.92013733 35.34078598-76.73999221 35.34078597-119.18204129C521.55939293 151.4991532 426.61930946 123.83071136 342.3973332 151.6895133 271.51712503 175.14520165 204.4358435 248.06143668 215.49328889 310.14369307 233.90856933 413.65826232 323.56822592 488.86709687 449.52046973 507.50584404a4.38656137 4.38656137 0 0 1 3.76582145 4.33690177v0.0496596a58.45713616 58.45713616 0 0 0 0.82765297 9.69181732 4.31207268 4.31207268 0 0 1-3.02921012 4.83349339c-27.84224899 8.27653037-56.14798441 15.92404471-96.09052092 11.36367692-52.92013733-6.04186729-76.73999221-35.34078598-119.18204203-35.34078597-84.31301788 0-111.98145972 94.94008347-84.12265778 179.16205973C175.14520165 752.48287497 248.06143668 819.5641565 310.14369307 808.50671111c103.56422812-18.4566632 178.77306267-108.16597939 197.38698006-234.22581779a4.40311432 4.40311432 0 0 1 4.3451786-3.77409829 58.45713616 58.45713616 0 0 0 9.61732865-0.82765297 4.30379585 4.30379585 0 0 1 4.825218 3.02921012c8.32618996 27.9001847 15.99025727 56.2804088 11.42161191 96.27260492-6.04186729 52.92013733-35.34078598 76.73999221-35.34078598 119.18204202 0 84.30474176 94.94008347 112.00628951 179.16205972 84.11438094 70.92159166-23.4225817 138.00287246-96.33881674 126.94542708-158.42107313-18.4566632-103.58078108-108.18253234-178.77306267-234.22581779-197.3952569a4.33690177 4.33690177 0 0 1-3.70788573-4.33690176v-0.23174286a57.65431298 57.65431298 0 0 0-0.77799409-9.47662814 4.32034881 4.32034881 0 0 1 3.06231676-4.80038748c27.84224899-8.309637 56.17281348-15.95715135 96.16500959-11.39678283z m-147.24775703 53.3753462c-21.0223876 6.88607321-40.39774612-9.31937323-39.11488426-29.60515022a29.43961992 29.43961992 0 0 1 27.35393418-27.35393346c20.285777-1.28286257 36.49122344 18.09249595 29.60515023 39.11488355a27.98295022 27.98295022 0 0 1-17.84420015 17.84420013z" fill="#4caf50" p-id="44615">

</path>

</svg>