<?xml version="1.0" encoding="UTF-8"?>
<svg xmlns="http://www.w3.org/2000/svg" version="1.1" viewBox="0 0 200 200">
  <defs>
    <style>
      .cls-1 {
        fill: #fff;
      }

      .cls-2 {
        fill: #ff931e;
      }
    </style>
  </defs>
  <!-- Generator: Adobe Illustrator 28.7.1, SVG Export Plug-In . SVG Version: 1.2.0 Build 142)  -->
  <g>
    <g id="_图层_2" data-name="图层_2">
      <circle class="cls-2" cx="100" cy="100" r="87"/>
    </g>
    <g id="_灯带" data-name="灯带">
      <path class="cls-1" d="M149,83.4v4.2H51.1v-4.2h97.9ZM149,112.9v4.2H51.1v-4.2h97.9Z"/>
      <path class="cls-1" d="M146.9,95.8v9.3c0,1-.5,1.5-1.5,1.5h-9.9c-1,0-1.5-.5-1.5-1.5v-9.3c0-1,.5-1.5,1.5-1.5h9.9c1,0,1.5.5,1.5,1.5Z"/>
      <path class="cls-1" d="M126.8,95.8v9.3c0,1-.5,1.5-1.5,1.5h-9.9c-1,0-1.5-.5-1.5-1.5v-9.3c0-1,.5-1.5,1.5-1.5h9.9c1,0,1.5.5,1.5,1.5Z"/>
      <path class="cls-1" d="M106.7,95.8v9.3c0,1-.5,1.5-1.5,1.5h-9.9c-1,0-1.5-.5-1.5-1.5v-9.3c0-1,.5-1.5,1.5-1.5h9.9c1,0,1.5.5,1.5,1.5Z"/>
      <path class="cls-1" d="M86.6,95.8v9.3c0,1-.5,1.5-1.5,1.5h-9.9c-1,0-1.5-.5-1.5-1.5v-9.3c0-1,.5-1.5,1.5-1.5h9.9c1,0,1.5.5,1.5,1.5Z"/>
      <path class="cls-1" d="M66.3,95.8v9.3c0,1-.5,1.5-1.5,1.5h-9.9c-1,0-1.5-.5-1.5-1.5v-9.3c0-1,.5-1.5,1.5-1.5h9.9c1,0,1.5.5,1.5,1.5Z"/>
      <path class="cls-1" d="M129.5,122.5c0-.5.3-.9.7-1.1.6-.3,1.4,0,1.7.6,0,0,0,0,0,0l9.5,19.4c.3.6,0,1.4-.6,1.7,0,0,0,0,0,0-.6.3-1.4,0-1.7-.6,0,0,0,0,0,0l-9.5-19.4c0-.2-.1-.4-.1-.6ZM58.4,141.9c0-.2,0-.4.1-.6l9.5-19.4c.3-.6,1.1-.9,1.7-.6,0,0,0,0,0,0,.6.3.9,1.1.6,1.7,0,0,0,0,0,0l-9.5,19.4c-.3.6-1.1.9-1.7.6-.4-.2-.7-.7-.7-1.1h0ZM77.5,145c0-.1,0-.2,0-.3l4.8-19.4c.2-.7.9-1.1,1.5-.9.7.2,1.1.9.9,1.5h0s-4.8,19.4-4.8,19.4c-.2.7-.9,1.1-1.5.9-.6-.1-1-.6-1-1.2ZM92,147.6s0,0,0-.1l1.9-19.4c0-.7.7-1.2,1.4-1.1.7,0,1.2.7,1.1,1.4l-1.9,19.4c0,.7-.7,1.2-1.4,1.1-.6,0-1.1-.6-1.1-1.3h0ZM115.2,125.7c0-.6.4-1.1,1-1.2.7-.2,1.4.2,1.5.9l4.8,19.4c.2.7-.2,1.4-.9,1.5-.7.2-1.4-.2-1.5-.9l-4.8-19.4c0,0,0-.2,0-.3h0ZM103.6,128.2c0-.7.5-1.2,1.1-1.3.7,0,1.3.4,1.4,1.1l1.9,19.4c0,.7-.4,1.3-1.1,1.4-.7,0-1.3-.4-1.4-1.1h0s-1.9-19.4-1.9-19.4c0,0,0,0,0-.1ZM129.5,78c0-.2,0-.4.1-.6l9.5-19.4c.3-.6,1.1-.9,1.7-.6,0,0,0,0,0,0,.6.3.9,1.1.6,1.7h0s-9.5,19.4-9.5,19.4c-.3.6-1.1.9-1.7.6-.4-.2-.7-.7-.7-1.1h0ZM58.4,58.7c0-.5.3-.9.7-1.1.6-.3,1.4,0,1.7.6,0,0,0,0,0,0l9.5,19.4c.3.6,0,1.4-.6,1.7,0,0,0,0,0,0-.6.3-1.4,0-1.7-.6,0,0,0,0,0,0l-9.5-19.4c0-.2-.1-.4-.1-.6ZM77.5,55.5c0-.6.4-1.1,1-1.2.7-.2,1.4.2,1.5.9l4.8,19.4c.2.7-.2,1.4-.9,1.5-.7.2-1.4-.2-1.5-.9l-4.8-19.4c0,0,0-.2,0-.3ZM92,53c0-.7.5-1.2,1.1-1.3.7,0,1.3.4,1.4,1.1l1.9,19.4c0,.7-.4,1.3-1.1,1.4-.7,0-1.3-.4-1.4-1.1,0,0,0,0,0,0l-1.9-19.4s0,0,0-.1ZM115.2,74.9c0-.1,0-.2,0-.3l4.8-19.4c.2-.7.9-1.1,1.5-.9.7.2,1.1.9.9,1.5h0s-4.8,19.4-4.8,19.4c-.2.7-.9,1.1-1.5.9-.6-.1-1-.6-1-1.2h0ZM103.6,72.3s0,0,0-.1l1.9-19.4c0-.7.7-1.2,1.4-1.1.7,0,1.2.7,1.1,1.4l-1.9,19.4c0,.7-.7,1.2-1.4,1.1-.6,0-1.1-.6-1.1-1.3h0Z"/>
    </g>
  </g>
</svg>