<?xml version="1.0" standalone="no"?><!DOCTYPE svg PUBLIC "-//W3C//DTD SVG 1.1//EN" "http://www.w3.org/Graphics/SVG/1.1/DTD/svg11.dtd"><svg t="1774346613391" class="icon" viewBox="0 0 1024 1024" version="1.1" xmlns="http://www.w3.org/2000/svg" p-id="5567" xmlns:xlink="http://www.w3.org/1999/xlink" width="200" height="200"><path d="M739.555556 142.222222a71.111111 71.111111 0 0 1 71.111111 71.111111v540.444445a71.111111 71.111111 0 0 1-71.111111 71.111111h-49.777778v42.666667a14.222222 14.222222 0 0 1-28.344889 1.664L661.333333 867.555556v-42.666667h-42.666666v42.666667a14.222222 14.222222 0 0 1-28.344889 1.664L590.222222 867.555556v-42.666667h-156.444444v42.666667a14.222222 14.222222 0 0 1-28.344889 1.664L405.333333 867.555556v-42.666667h-42.666666v42.666667a14.222222 14.222222 0 0 1-28.344889 1.664L334.222222 867.555556v-42.666667H284.444444a71.111111 71.111111 0 0 1-71.04-68.024889L213.333333 753.777778V213.333333a71.111111 71.111111 0 0 1 71.111111-71.111111z m0 28.444445H284.444444a42.666667 42.666667 0 0 0-42.666666 42.666666v540.444445a42.666667 42.666667 0 0 0 42.666666 42.666666h455.111112a42.666667 42.666667 0 0 0 42.666666-42.666666V213.333333a42.666667 42.666667 0 0 0-42.666666-42.666666zM455.722667 516.380444c-17.962667-20.423111 0.924444-52.337778 27.477333-46.421333l1.962667 0.497778c46.336 13.411556 74.752 41.173333 88.462222 77.368889l0.910222 2.474666 0.910222 2.688 2.616889 0.853334 2.759111 0.995555c1.848889 0.711111 2.787556 1.322667 4.437334 2.531556l0.967111 0.711111a28.444444 28.444444 0 0 1 3.512889 3.256889l1.521777 1.777778 1.251556 1.749333 0.952889 1.479111 0.910222 1.564445 0.924445 1.649777 1.891555 3.655111 0.952889 2.005334 0.981333 2.133333 0.853334 1.991111 1.450666 3.598222 1.408 3.882667c5.219556 15.175111 7.310222 30.72 4.551111 45.895111C597.76 685.653333 561.208889 725.333333 510.151111 725.333333A97.706667 97.706667 0 0 1 412.444444 627.626667c0-17.536 4.807111-30.933333 14.592-46.122667l1.664-2.531556 7.068445-10.410666c2.759111-4.152889 4.864-7.637333 6.684444-11.178667l1.521778-2.929778 0.611556-1.265777 0.398222-1.194667 0.739555-2.944 0.241778-1.237333 0.284445-1.706667 0.611555-4.366222 0.341334-3.470223a27.918222 27.918222 0 0 1 9.941333-18.972444l0.753778-0.597333zM477.255111 497.777778c19.797333 19.811556 22.286222 41.486222 19.868445 57.984l-0.298667 1.877333-0.341333 1.834667-0.568889 2.645333-0.867556 3.342222-0.711111 2.346667-0.981333 2.915556-1.507556 3.854222-1.422222 3.185778-1.28 2.446222-0.952889 1.635555-0.426667 0.611556-0.128 0.156444c1.422222-18.503111-1.848889-28.814222-7.850666-36.707555l-1.521778-1.877334-1.066667-1.208888-1.678222-1.763556-0.270222 2.659556-0.739556 5.859555-0.497778 3.015111-0.711111 3.484445-0.355555 1.536-0.568889 2.062222-0.938667 2.887111-0.910222 2.275556-0.995556 2.090666-1.749333 3.427556c-2.702222 5.233778-5.546667 9.784889-8.32 13.937778l-5.646222 8.32-2.986667 4.508444c-5.76 8.917333-9.941333 17.664-9.941333 30.506667A69.262222 69.262222 0 0 0 510.151111 696.888889c38.243556 0 62.535111-32.284444 69.262222-69.262222 1.976889-10.936889-0.341333-22.428444-3.470222-31.559111l-0.711111-1.991112-1.095111-2.816-1.123556-2.602666-1.450666-3.086222-0.696889-1.379556-1.28-2.346667-0.568889-0.967111-0.284445-0.369778c-0.099556-0.071111-0.142222-0.028444-0.170666 0.113778v0.213334l0.426666 5.276444 0.113778 2.517333 0.014222 1.664-0.056888 2.389334-0.199112 2.56-0.341333 2.702222-0.241778 1.379555-0.284444 1.422223c-1.891556 8.504889-6.684444 18.062222-18.019556 25.159111l0.341334-1.223111 0.782222-3.612445 0.924444-5.546666 0.568889-4.337778 0.526222-4.650667 0.426667-4.778667 0.213333-3.598222a77.127111 77.127111 0 0 0-0.327111-13.809778l-0.853333-5.504-0.512-2.872888-0.824889-3.925334-1.038222-4.224-1.024-3.584-0.568889-1.848889-0.967111-2.816-1.564445-4.138666c-8.504889-20.864-26.908444-45.511111-68.835555-57.656889z m91.349333-241.777778a28.444444 28.444444 0 0 1 28.444445 28.444444v42.951112a28.444444 28.444444 0 0 1-28.444445 28.444444h-114.360888a28.444444 28.444444 0 0 1-28.444445-28.444444V284.444444a28.444444 28.444444 0 0 1 28.444445-28.444444zM682.666667 315.505778a14.222222 14.222222 0 0 1 1.664 28.344889l-1.664 0.099555h-23.793778a14.222222 14.222222 0 0 1-1.664-28.359111l1.664-0.085333H682.666667z m-324.650667 0a14.222222 14.222222 0 0 1 1.664 28.344889l-1.664 0.099555H334.222222a14.222222 14.222222 0 0 1-1.664-28.359111l1.664-0.085333h23.793778zM568.604444 284.444444h-114.360888v42.951112h114.346666V284.444444zM682.666667 267.904a14.222222 14.222222 0 0 1 1.664 28.344889l-1.664 0.099555h-23.793778a14.222222 14.222222 0 0 1-1.664-28.359111l1.664-0.085333H682.666667z m-324.650667 0a14.222222 14.222222 0 0 1 1.664 28.344889l-1.664 0.099555H334.222222a14.222222 14.222222 0 0 1-1.664-28.359111l1.664-0.085333h23.793778z" fill="#ff931e" p-id="5568"></path></svg>